<?xml version="1.0" encoding="utf-8"?>
<!-- Generator: Adobe Illustrator 21.1.0, SVG Export Plug-In . SVG Version: 6.00 Build 0)  -->
<svg version="1.1" id="Layer_1" xmlns="http://www.w3.org/2000/svg" xmlns:xlink="http://www.w3.org/1999/xlink" x="0px" y="0px"
	 viewBox="0 0 271.1 216.2" style="enable-background:new 0 0 271.1 216.2;" xml:space="preserve">
<style type="text/css">
	.st0{fill:#2B5971;}
	.st1{fill:#F2F7F7;}
	.st2{fill:#CEE6E8;}
	.st3{fill:#FFFFFF;}
	.st4{fill:#F6BE12;}
	.st5{fill:#34AC91;}
</style>
<g>
	<g>
		<g>
			<path class="st0" d="M172.9,66.1c-10.7,0-19.4-8.7-19.4-19.4c0-10.7,8.7-19.4,19.4-19.4c10.7,0,19.4,8.7,19.4,19.4
				C192.3,57.4,183.6,66.1,172.9,66.1z M172.9,29.3c-9.6,0-17.4,7.8-17.4,17.4c0,9.6,7.8,17.4,17.4,17.4s17.4-7.8,17.4-17.4
				C190.3,37.1,182.5,29.3,172.9,29.3z"/>
		</g>
		<g>
			<path class="st0" d="M172.9,66.1c-6.5,0-11.6-8.5-11.6-19.4c0-10.9,5.1-19.4,11.6-19.4c6.5,0,11.6,8.5,11.6,19.4
				C184.5,57.6,179.4,66.1,172.9,66.1z M172.9,29.3c-5.2,0-9.6,8-9.6,17.4c0,9.4,4.4,17.4,9.6,17.4c5.2,0,9.6-8,9.6-17.4
				C182.5,37.3,178.1,29.3,172.9,29.3z"/>
		</g>
		<g>
			<path class="st0" d="M172.9,66.1c-0.6,0-1-0.4-1-1V28.3c0-0.6,0.4-1,1-1c10.7,0,19.4,8.7,19.4,19.4
				C192.3,57.4,183.6,66.1,172.9,66.1z M173.9,29.4V64c9.1-0.5,16.4-8.1,16.4-17.3C190.3,37.5,183,29.9,173.9,29.4z"/>
		</g>
		<g>
			<path class="st0" d="M190.1,54.2h-34.4c-0.4,0-0.8-0.3-0.9-0.6c-0.8-2.2-1.3-4.5-1.3-6.8c0-2.3,0.4-4.6,1.3-6.8
				c0.1-0.4,0.5-0.6,0.9-0.6h34.4c0.4,0,0.8,0.3,0.9,0.6c0.8,2.2,1.3,4.5,1.3,6.8c0,2.3-0.4,4.6-1.3,6.8
				C190.9,53.9,190.5,54.2,190.1,54.2z M156.4,52.2h32.9c0.6-1.8,0.9-3.6,0.9-5.5c0-1.8-0.3-3.7-0.9-5.5h-32.9
				c-0.6,1.8-0.9,3.6-0.9,5.5C155.5,48.5,155.8,50.4,156.4,52.2z"/>
		</g>
	</g>
	<g>
		<g>
			<g>
				<path class="st0" d="M143.7,50.3h-23.8V26.5h23.8V50.3z M121.9,48.3h19.8V28.5h-19.8V48.3z"/>
			</g>
			<g>
				<rect x="121.3" y="32.3" class="st0" width="21.1" height="2"/>
			</g>
			<path class="st0" d="M124.2,29.4c-0.5,0-0.9,0.4-0.9,0.9c0,0.5,0.4,0.9,0.9,0.9s0.9-0.4,0.9-0.9
				C125.1,29.8,124.7,29.4,124.2,29.4L124.2,29.4z"/>
			<path class="st0" d="M126.7,29.4c-0.5,0-0.9,0.4-0.9,0.9c0,0.5,0.4,0.9,0.9,0.9s0.9-0.4,0.9-0.9
				C127.7,29.8,127.2,29.4,126.7,29.4L126.7,29.4z"/>
			<path class="st0" d="M129.3,29.4c-0.5,0-0.9,0.4-0.9,0.9c0,0.5,0.4,0.9,0.9,0.9c0.5,0,0.9-0.4,0.9-0.9
				C130.2,29.8,129.8,29.4,129.3,29.4L129.3,29.4z"/>
		</g>
		<g>
			<polygon class="st0" points="130.9,44.7 127.6,42 128.9,40.5 130.6,41.9 134.6,37 136.1,38.2 			"/>
		</g>
	</g>
	<g>
		<g>
			<rect x="249.8" y="115.6" class="st0" width="3.9" height="2"/>
		</g>
		<g>
			<rect x="239.9" y="115.6" class="st0" width="3.2" height="2"/>
		</g>
		<g>
			<rect x="239.9" y="122.9" class="st0" width="3.2" height="2"/>
		</g>
		<g>
			<path class="st0" d="M247.8,119.3h-5.3v-5.3h5.3V119.3z M244.4,117.3h1.3v-1.3h-1.3V117.3z"/>
		</g>
		<g>
			<rect x="249.8" y="122.9" class="st0" width="3.9" height="2"/>
		</g>
		<g>
			<path class="st0" d="M247.8,126.6h-5.3v-5.3h5.3V126.6z M244.4,124.6h1.3v-1.3h-1.3V124.6z"/>
		</g>
		<g>
			<rect x="238.4" y="112.4" class="st0" width="2" height="11.6"/>
		</g>
	</g>
	<g>
		<g>
			<path class="st0" d="M206.5,44.6l-2.2,0c-0.4,0-0.8-0.2-1.1-0.5c-0.3-0.3-0.5-0.7-0.5-1.1l0-1.3l-0.6-0.2l-0.9,0.9
				c-0.6,0.6-1.7,0.6-2.3,0l-1.5-1.6c-0.6-0.6-0.6-1.7,0-2.3l0.9-0.9l-0.2-0.6l-1.3,0c-0.9,0-1.6-0.7-1.6-1.6l0-2.2
				c0-0.9,0.7-1.6,1.6-1.6l1.3,0l0.2-0.5l-0.9-0.9c-0.3-0.3-0.5-0.7-0.5-1.1c0-0.4,0.2-0.8,0.5-1.1l1.6-1.5c0.6-0.6,1.7-0.6,2.3,0
				l0.9,1l0.5-0.2l0-1.3c0-0.9,0.7-1.6,1.6-1.6l2.2,0c0.4,0,0.8,0.2,1.1,0.5c0.3,0.3,0.5,0.7,0.5,1.1l0,1.3l0.5,0.2l0.9-0.9
				c0.6-0.6,1.7-0.6,2.3,0l1.5,1.6c0.3,0.3,0.5,0.7,0.5,1.1c0,0.4-0.2,0.8-0.5,1.1l-0.9,0.9l0.2,0.6l1.3,0c0.9,0,1.6,0.7,1.6,1.6
				l0,2.2c0,0.9-0.7,1.6-1.6,1.6l0,0l-1.3,0l-0.2,0.6l0.9,0.9c0.3,0.3,0.5,0.7,0.5,1.1c0,0.4-0.2,0.8-0.5,1.1l-1.6,1.5
				c-0.6,0.6-1.7,0.6-2.3,0l-0.9-1l-0.5,0.2l0,1.3C208.1,43.9,207.3,44.6,206.5,44.6z M204.7,42.6l1.4,0l0-1c0-0.8,0.5-1.5,1.3-1.7
				l0.6-0.2c0.2-0.1,0.4-0.1,0.7-0.1c0.5,0,1,0.2,1.3,0.5l0.7,0.7l1-1L211,39c-0.5-0.5-0.7-1.4-0.3-2.1l0.2-0.6
				c0.2-0.6,0.9-1.2,1.7-1.2l1,0l0-1.4l-1,0c-0.8,0-1.5-0.5-1.7-1.3l-0.2-0.6c-0.3-0.6-0.2-1.5,0.4-2l0.7-0.7l-1-1l-0.7,0.7
				c-0.5,0.5-1.5,0.7-2.1,0.3l-0.6-0.2c-0.7-0.2-1.2-1-1.2-1.7l0-1l-1.4,0l0,1c0,0.8-0.5,1.5-1.3,1.7l-0.6,0.2
				c-0.2,0.1-0.4,0.1-0.7,0.1c-0.5,0-1-0.2-1.3-0.5l-0.7-0.7l-1,1l0.7,0.7c0.5,0.6,0.7,1.4,0.3,2.1l-0.2,0.6c-0.2,0.7-1,1.2-1.7,1.2
				l-1,0l0,1.4l1,0c0.8,0,1.5,0.5,1.7,1.3l0.2,0.6c0.3,0.6,0.1,1.5-0.4,2l-0.7,0.7l1,1l0.7-0.7c0.5-0.5,1.5-0.7,2.1-0.3l0.6,0.2
				c0.7,0.2,1.2,1,1.2,1.7L204.7,42.6z M205.5,38.3c-1.1,0-2.1-0.4-2.8-1.2c-0.7-0.7-1.1-1.7-1.1-2.8c0-2.1,1.8-3.9,3.9-3.9h0
				c2.2,0,3.9,1.8,3.9,3.9C209.3,36.6,207.6,38.3,205.5,38.3z M205.5,31.5v1c-1,0-1.9,0.8-1.9,1.9c0,0.5,0.2,1,0.5,1.4
				c0.4,0.4,0.8,0.6,1.3,0.6l0,0c1.1,0,1.9-0.8,1.9-1.9c0-1.1-0.8-1.9-1.9-1.9L205.5,31.5z"/>
		</g>
	</g>
	<g>
		<g>
			<path class="st1" d="M40.6,180h179h4.7V66.3c0-2.6-2.1-4.7-4.7-4.7h-179c-2.6,0-4.7,2.1-4.7,4.7V180H40.6z"/>
			<path class="st0" d="M224.3,181H35.9c-0.6,0-1-0.4-1-1V66.3c0-3.1,2.6-5.7,5.7-5.7h179c3.1,0,5.7,2.5,5.7,5.7V180
				C225.3,180.6,224.8,181,224.3,181z M36.9,179h186.4V66.3c0-2-1.6-3.7-3.7-3.7h-179c-2,0-3.7,1.7-3.7,3.7V179z"/>
		</g>
		<g>
			<rect x="47.6" y="72.9" class="st2" width="165" height="95.6"/>
			<path class="st0" d="M212.6,169.5h-165c-0.6,0-1-0.4-1-1V72.9c0-0.6,0.4-1,1-1h165c0.6,0,1,0.4,1,1v95.6
				C213.6,169,213.2,169.5,212.6,169.5z M48.6,167.5h163V73.9h-163V167.5z"/>
		</g>
		<g>
			<rect x="47.6" y="72.9" class="st3" width="81.5" height="95.6"/>
			<path class="st0" d="M129.1,169.5H47.6c-0.6,0-1-0.4-1-1V72.9c0-0.6,0.4-1,1-1h81.5c0.6,0,1,0.4,1,1v95.6
				C130.1,169,129.7,169.5,129.1,169.5z M48.6,167.5h79.5V73.9H48.6V167.5z"/>
		</g>
		<g>
			<rect x="129.2" y="72.9" class="st4" width="83.5" height="11.2"/>
			<path class="st0" d="M212.6,85.1h-83.5c-0.6,0-1-0.4-1-1V72.9c0-0.6,0.4-1,1-1h83.5c0.6,0,1,0.4,1,1v11.2
				C213.6,84.7,213.2,85.1,212.6,85.1z M130.2,83.1h81.5v-9.2h-81.5V83.1z"/>
		</g>
		<g>
			<rect x="135.8" y="90.9" class="st5" width="70.1" height="23.9"/>
			<path class="st0" d="M206,115.8h-70.1c-0.6,0-1-0.4-1-1V90.9c0-0.6,0.4-1,1-1H206c0.6,0,1,0.4,1,1v23.9
				C207,115.3,206.5,115.8,206,115.8z M136.8,113.8H205V91.9h-68.1V113.8z"/>
		</g>
		<g>
			<path class="st1" d="M241.7,180.6h-77.2c-0.2,1.6-1.4,2.9-3.1,2.9H98.9c-1.6,0-2.9-1.3-3.1-2.9H18.6c0,0.4-0.1,0.7-0.1,1.1v3.4
				c0,5.6,4.5,5.9,10.2,5.9h203c5.6,0,10.2-0.3,10.2-5.9v-3.4C241.8,181.3,241.7,181,241.7,180.6z"/>
			<path class="st0" d="M231.6,192h-203c-4.7,0-11.2,0-11.2-6.9v-3.4c0-0.3,0-0.6,0.1-0.8c0-0.1,0-0.3,0-0.4c0-0.5,0.5-0.9,1-0.9
				h77.2c0.5,0,0.9,0.4,1,0.9c0.1,1.1,1,2,2.1,2h62.5c1.1,0,2-0.8,2.1-2c0.1-0.5,0.5-0.9,1-0.9h77.2c0.5,0,0.9,0.4,1,0.9
				c0,0.1,0,0.2,0,0.4c0,0.3,0.1,0.6,0.1,0.9v3.4C242.8,192,236.3,192,231.6,192z M19.5,181.6c0,0,0,0.1,0,0.1v3.4
				c0,4.2,2.7,4.9,9.2,4.9h203c6.5,0,9.2-0.7,9.2-4.9v-3.4c0,0,0-0.1,0-0.1h-75.5c-0.6,1.7-2.1,2.9-3.9,2.9H98.9
				c-1.8,0-3.3-1.2-3.9-2.9H19.5z"/>
		</g>
		<g>
			<g>
				<rect x="54.2" y="84.6" class="st0" width="23.7" height="2"/>
			</g>
			<g>
				<rect x="65.7" y="89" class="st0" width="32.9" height="2"/>
			</g>
			<g>
				<rect x="65.7" y="93.3" class="st0" width="29.7" height="2"/>
			</g>
			<g>
				<rect x="65.7" y="97.6" class="st0" width="23.7" height="2"/>
			</g>
			<g>
				<rect x="54.2" y="133.6" class="st0" width="23.7" height="2"/>
			</g>
			<g>
				<rect x="65.7" y="138" class="st0" width="60.4" height="2"/>
			</g>
			<g>
				<rect x="65.7" y="142.3" class="st0" width="53.5" height="2"/>
			</g>
			<g>
				<rect x="71.7" y="146.6" class="st0" width="23.7" height="2"/>
			</g>
			<g>
				<rect x="54.2" y="110.1" class="st0" width="23.7" height="2"/>
			</g>
			<g>
				<rect x="65.7" y="114.5" class="st0" width="51.6" height="2"/>
			</g>
			<g>
				<rect x="65.7" y="118.8" class="st0" width="48.4" height="2"/>
			</g>
			<g>
				<rect x="65.7" y="123.1" class="st0" width="23.7" height="2"/>
			</g>
		</g>
		<g>
			<g>
				<rect x="135.8" y="135.2" class="st0" width="22" height="2"/>
			</g>
			<g>
				<rect x="135.8" y="140.3" class="st0" width="22" height="2"/>
			</g>
			<g>
				<rect x="135.8" y="145.4" class="st0" width="22" height="2"/>
			</g>
			<g>
				<rect x="135.8" y="150.4" class="st0" width="22" height="2"/>
			</g>
			<g>
				<circle class="st2" cx="146.8" cy="126.1" r="4.7"/>
				<path class="st0" d="M146.8,131.8c-3.1,0-5.7-2.5-5.7-5.7c0-3.1,2.5-5.7,5.7-5.7s5.7,2.5,5.7,5.7
					C152.5,129.2,149.9,131.8,146.8,131.8z M146.8,122.4c-2,0-3.7,1.6-3.7,3.7c0,2,1.6,3.7,3.7,3.7c2,0,3.7-1.6,3.7-3.7
					C150.5,124.1,148.8,122.4,146.8,122.4z"/>
			</g>
			<g>
				<rect x="140.3" y="156.1" class="st4" width="13" height="4.7"/>
				<path class="st0" d="M153.3,161.8h-13c-0.6,0-1-0.4-1-1v-4.7c0-0.6,0.4-1,1-1h13c0.6,0,1,0.4,1,1v4.7
					C154.3,161.3,153.9,161.8,153.3,161.8z M141.3,159.8h11v-2.7h-11V159.8z"/>
			</g>
		</g>
		<g>
			<g>
				<rect x="159.9" y="135.2" class="st0" width="22" height="2"/>
			</g>
			<g>
				<rect x="159.9" y="140.3" class="st0" width="22" height="2"/>
			</g>
			<g>
				<rect x="159.9" y="145.4" class="st0" width="22" height="2"/>
			</g>
			<g>
				<rect x="159.9" y="150.4" class="st0" width="22" height="2"/>
			</g>
			<g>
				<circle class="st2" cx="170.9" cy="126.1" r="4.7"/>
				<path class="st0" d="M170.9,131.8c-3.1,0-5.7-2.5-5.7-5.7c0-3.1,2.5-5.7,5.7-5.7c3.1,0,5.7,2.5,5.7,5.7
					C176.6,129.2,174,131.8,170.9,131.8z M170.9,122.4c-2,0-3.7,1.6-3.7,3.7c0,2,1.6,3.7,3.7,3.7c2,0,3.7-1.6,3.7-3.7
					C174.6,124.1,172.9,122.4,170.9,122.4z"/>
			</g>
			<g>
				<rect x="164.4" y="156.1" class="st4" width="13" height="4.7"/>
				<path class="st0" d="M177.4,161.8h-13c-0.6,0-1-0.4-1-1v-4.7c0-0.6,0.4-1,1-1h13c0.6,0,1,0.4,1,1v4.7
					C178.4,161.3,177.9,161.8,177.4,161.8z M165.4,159.8h11v-2.7h-11V159.8z"/>
			</g>
		</g>
		<g>
			<g>
				<rect x="184" y="135.2" class="st0" width="22" height="2"/>
			</g>
			<g>
				<rect x="184" y="140.3" class="st0" width="22" height="2"/>
			</g>
			<g>
				<rect x="184" y="145.4" class="st0" width="22" height="2"/>
			</g>
			<g>
				<rect x="184" y="150.4" class="st0" width="22" height="2"/>
			</g>
			<g>
				<circle class="st2" cx="195" cy="126.1" r="4.7"/>
				<path class="st0" d="M195,131.8c-3.1,0-5.7-2.5-5.7-5.7c0-3.1,2.5-5.7,5.7-5.7c3.1,0,5.7,2.5,5.7,5.7
					C200.6,129.2,198.1,131.8,195,131.8z M195,122.4c-2,0-3.7,1.6-3.7,3.7c0,2,1.6,3.7,3.7,3.7c2,0,3.7-1.6,3.7-3.7
					C198.6,124.1,197,122.4,195,122.4z"/>
			</g>
			<g>
				<rect x="188.5" y="156.1" class="st4" width="13" height="4.7"/>
				<path class="st0" d="M201.5,161.8h-13c-0.6,0-1-0.4-1-1v-4.7c0-0.6,0.4-1,1-1h13c0.6,0,1,0.4,1,1v4.7
					C202.5,161.3,202,161.8,201.5,161.8z M189.5,159.8h11v-2.7h-11V159.8z"/>
			</g>
		</g>
		<g>
			<rect x="134.9" y="77.8" class="st0" width="15" height="2"/>
		</g>
		<g>
			<rect x="153.6" y="77.8" class="st0" width="15" height="2"/>
		</g>
		<g>
			<rect x="172.3" y="77.8" class="st0" width="15" height="2"/>
		</g>
		<g>
			<rect x="191" y="77.8" class="st0" width="15" height="2"/>
		</g>
	</g>
	<g>
		<g>
			<rect x="232.4" y="69.7" class="st0" width="18.2" height="2"/>
		</g>
		<g>
			<rect x="232.4" y="74.3" class="st0" width="14.1" height="2"/>
		</g>
		<g>
			<rect x="232.4" y="78.9" class="st0" width="18.2" height="2"/>
		</g>
		<g>
			<rect x="232.4" y="83.5" class="st0" width="15.5" height="2"/>
		</g>
		<g>
			<rect x="232.4" y="88.1" class="st0" width="7.5" height="2"/>
		</g>
	</g>
	<g>
		<g>
			<path class="st0" d="M92,49.8H78.9V36.7H92V49.8z M80.9,47.8H90v-9.1h-9.1V47.8z"/>
		</g>
		<g>
			<g>
				<rect x="72.5" y="36" class="st0" width="2" height="14.4"/>
			</g>
			<g>
				<rect x="75.4" y="37" class="st0" width="2" height="12.5"/>
			</g>
			<g>
				<rect x="96.4" y="36" class="st0" width="2" height="14.4"/>
			</g>
			<g>
				<rect x="93.4" y="37" class="st0" width="2" height="12.5"/>
			</g>
		</g>
	</g>
</g>
</svg>
