<?xml version="1.0" encoding="utf-8"?>
<!-- Generator: Adobe Illustrator 21.1.0, SVG Export Plug-In . SVG Version: 6.00 Build 0)  -->
<svg version="1.1" id="Layer_1" xmlns="http://www.w3.org/2000/svg" xmlns:xlink="http://www.w3.org/1999/xlink" x="0px" y="0px"
	 viewBox="0 0 271.1 216.2" style="enable-background:new 0 0 271.1 216.2;" xml:space="preserve">
<style type="text/css">
	.st0{fill:#FFFFFF;}
	.st1{fill:#2B5971;}
	.st2{fill:#F6BE12;}
	.st3{fill:#CEE6E8;}
	.st4{fill:#34AC91;}
</style>
<g>
	<g>
		<polygon class="st0" points="179.6,193.6 179.6,101.7 179.6,55.6 146.6,22.6 54.5,22.6 54.5,56.7 54.5,101.7 54.5,193.6 		"/>
		<path class="st1" d="M179.6,194.6H54.5c-0.6,0-1-0.4-1-1v-171c0-0.6,0.4-1,1-1h92.1c0.3,0,0.5,0.1,0.7,0.3l33,33
			c0.2,0.2,0.3,0.4,0.3,0.7v138C180.6,194.1,180.1,194.6,179.6,194.6z M55.5,192.6h123.1V56l-32.4-32.4H55.5V192.6z"/>
	</g>
	<g>
		<polygon class="st2" points="146.6,55.6 179.6,55.6 146.6,22.6 		"/>
		<path class="st1" d="M179.6,56.6h-33c-0.6,0-1-0.4-1-1v-33c0-0.4,0.2-0.8,0.6-0.9c0.4-0.2,0.8-0.1,1.1,0.2l33,33
			c0.3,0.3,0.4,0.7,0.2,1.1C180.4,56.4,180,56.6,179.6,56.6z M147.6,54.6h29.6L147.6,25V54.6z"/>
	</g>
	<g>
		<g>
			<path class="st0" d="M65.5,48.2h35.8H65.5z"/>
			<rect x="65.5" y="47.2" class="st1" width="35.8" height="2"/>
		</g>
		<g>
			<path class="st0" d="M65.5,53.1h50.8H65.5z"/>
			<rect x="65.5" y="52.1" class="st1" width="50.8" height="2"/>
		</g>
		<g>
			<path class="st0" d="M65.5,58h40.3H65.5z"/>
			<rect x="65.5" y="57" class="st1" width="40.3" height="2"/>
		</g>
	</g>
	<g>
		<g>
			<rect x="98.2" y="100.9" class="st3" width="142.9" height="62.8"/>
			<path class="st1" d="M241.1,164.7H98.2c-0.6,0-1-0.4-1-1v-62.7c0-0.6,0.4-1,1-1h142.9c0.6,0,1,0.4,1,1v62.7
				C242.1,164.2,241.7,164.7,241.1,164.7z M99.2,162.7h140.9v-60.7H99.2V162.7z"/>
		</g>
		<g>
			<path class="st2" d="M101.3,106.8l60.8,38.8c4.2,2.6,10.9,2.6,15,0l60.8-38.8c2-1.2,3-2.9,3.1-4.5v-0.6c0-0.3-0.1-0.5-0.1-0.8
				H98.3C97.8,103,98.8,105.2,101.3,106.8z"/>
			<path class="st1" d="M169.7,148.5c-3,0-5.9-0.8-8.1-2.1l-60.8-38.8c-2.8-1.8-4.1-4.4-3.4-7c0.1-0.4,0.5-0.8,1-0.8H241
				c0.5,0,0.9,0.3,1,0.8c0.1,0.3,0.1,0.6,0.2,1l0,0.7c-0.1,2.1-1.4,4-3.6,5.3l-60.8,38.8C175.6,147.8,172.7,148.5,169.7,148.5z
				 M99.2,101.9c0,1.5,0.9,2.9,2.6,4l60.8,38.8c1.9,1.2,4.3,1.8,7,1.8s5.1-0.6,7-1.8l60.8-38.8c1.6-1,2.5-2.3,2.6-3.7l0-0.3H99.2z"
				/>
		</g>
	</g>
	<g>
		<rect x="64.5" y="143.6" class="st4" width="61" height="38.1"/>
		<path class="st1" d="M125.5,182.7h-61c-0.6,0-1-0.4-1-1v-38.1c0-0.6,0.4-1,1-1h61c0.6,0,1,0.4,1,1v38.1
			C126.5,182.3,126.1,182.7,125.5,182.7z M65.5,180.7h59v-36.1h-59V180.7z"/>
	</g>
	<g>
		<g>
			<path class="st0" d="M70,162.3h30.6H70z"/>
			<rect x="70" y="161.3" class="st1" width="30.6" height="2"/>
		</g>
		<g>
			<path class="st0" d="M70,166.4h43.5H70z"/>
			<rect x="70" y="165.4" class="st1" width="43.5" height="2"/>
		</g>
		<g>
			<path class="st0" d="M70,170.6h34.4H70z"/>
			<rect x="70" y="169.6" class="st1" width="34.4" height="2"/>
		</g>
	</g>
	<g>
		<g>
			<path class="st3" d="M30,63.4v103.5c1.5-0.2,2.6-1.4,2.8-2.8V63.4H30z"/>
			<path class="st1" d="M30,167.9c-0.2,0-0.5-0.1-0.7-0.2c-0.2-0.2-0.3-0.5-0.3-0.8V63.4c0-0.6,0.4-1,1-1h2.8c0.6,0,1,0.4,1,1v100.7
				c0,0,0,0.1,0,0.1c-0.2,1.9-1.7,3.4-3.7,3.7C30.1,167.9,30,167.9,30,167.9z M31,64.4v101c0.4-0.4,0.7-0.8,0.8-1.4V64.4H31z"/>
		</g>
		<g>
			<path class="st3" d="M39.5,63.4h-6.7v100.7l0,0c0,0,0,0,0,0c0,0,0,0,0,0c0.2,1.6,1.6,2.9,3.3,2.9c1.7,0,3.1-1.3,3.3-2.9
				c0,0,0,0,0,0c0,0,0,0,0,0l0,0V63.4z"/>
			<path class="st1" d="M36.2,167.9C36.1,167.9,36.1,167.9,36.2,167.9c-2.1,0-4-1.5-4.3-3.6c0,0,0-0.1,0-0.1c0-0.1,0-0.2,0-0.2
				l0-100.7c0-0.3,0.1-0.5,0.3-0.7c0.2-0.2,0.4-0.3,0.7-0.3h6.7c0.6,0,1,0.4,1,1v100.7c0,0.1,0,0.2-0.1,0.3
				C40.1,166.4,38.3,167.9,36.2,167.9z M33.8,163.9C33.8,163.9,33.8,163.9,33.8,163.9c0.1,1.2,1.2,2,2.3,2c1.2,0,2.2-0.9,2.3-2
				c0,0,0,0,0-0.1V64.4h-4.7V163.9z"/>
		</g>
		<g>
			<path class="st3" d="M39.5,164.1c0.2,1.5,1.3,2.6,2.8,2.8V63.4h-2.8V164.1z"/>
			<path class="st1" d="M42.3,167.9c-0.1,0-0.1,0-0.2,0c-1.9-0.3-3.4-1.8-3.6-3.7c0,0,0-0.1,0-0.1V63.4c0-0.6,0.4-1,1-1h2.8
				c0.6,0,1,0.4,1,1v103.5c0,0.3-0.1,0.6-0.3,0.8C42.8,167.8,42.5,167.9,42.3,167.9z M40.5,164c0.1,0.6,0.4,1.1,0.8,1.4v-101h-0.8
				V164z"/>
		</g>
		<g>
			<path class="st0" d="M42.3,166.9c-1.5-0.2-2.6-1.4-2.8-2.8l0,0c0,0,0,0,0,0c0,0,0,0,0,0c-0.2,1.6-1.6,2.9-3.3,2.9
				c-1.7,0-3.1-1.3-3.3-2.9c0,0,0,0,0,0c0,0,0,0,0,0l0,0c-0.2,1.5-1.3,2.6-2.8,2.8l6.2,7.7L42.3,166.9z"/>
			<path class="st1" d="M36.1,175.6c-0.3,0-0.6-0.1-0.8-0.4l-6.2-7.7c-0.2-0.3-0.3-0.7-0.2-1s0.4-0.6,0.8-0.6c1-0.2,1.8-1,2-2
				c0.1-0.5,0.5-0.8,0.9-0.9c0.2,0,0.5,0.1,0.7,0.2c0.2,0.2,0.4,0.4,0.4,0.7c0.1,1.1,1.1,2,2.3,2c1.2,0,2.2-0.9,2.3-2
				c0.1-0.5,0.4-0.8,0.9-0.9c0.1,0,0.2,0,0.3,0c0,0,0.1,0,0.1,0c0.4,0.1,0.7,0.4,0.8,0.8c0.1,1,0.9,1.8,2,2c0.4,0.1,0.7,0.3,0.8,0.6
				c0.1,0.3,0.1,0.7-0.2,1l-6.2,7.7C36.7,175.4,36.5,175.6,36.1,175.6z M31.6,167.4l4.5,5.6l4.5-5.6c-0.4-0.3-0.8-0.6-1.2-1
				c-0.8,0.9-2,1.5-3.3,1.5c-1.3,0-2.5-0.6-3.3-1.5C32.5,166.8,32.1,167.1,31.6,167.4z"/>
		</g>
		<g>
			<path class="st4" d="M33.1,170.8l3,3.8l3-3.8c-1-0.2-2-0.4-3-0.4C35.1,170.5,34.1,170.6,33.1,170.8z"/>
			<path class="st1" d="M36.1,175.6c-0.3,0-0.6-0.1-0.8-0.4l-3-3.8c-0.2-0.3-0.3-0.6-0.2-1c0.1-0.3,0.4-0.6,0.7-0.6
				c2.2-0.5,4.4-0.5,6.5,0c0.3,0.1,0.6,0.3,0.7,0.6c0.1,0.3,0,0.7-0.2,1l-3,3.8C36.7,175.4,36.5,175.6,36.1,175.6z M35,171.5
				l1.2,1.5l1.2-1.5C36.5,171.4,35.8,171.4,35,171.5z"/>
		</g>
		<g>
			<g>
				<rect x="30" y="59.7" class="st4" width="2.8" height="3.6"/>
				<path class="st1" d="M32.8,64.3H30c-0.6,0-1-0.4-1-1v-3.6c0-0.6,0.4-1,1-1h2.8c0.6,0,1,0.4,1,1v3.6
					C33.8,63.9,33.4,64.3,32.8,64.3z M31,62.3h0.8v-1.6H31V62.3z"/>
			</g>
			<g>
				<rect x="32.8" y="59.7" class="st4" width="6.7" height="3.6"/>
				<path class="st1" d="M39.5,64.3h-6.7c-0.6,0-1-0.4-1-1v-3.6c0-0.6,0.4-1,1-1h6.7c0.6,0,1,0.4,1,1v3.6
					C40.5,63.9,40,64.3,39.5,64.3z M33.8,62.3h4.7v-1.6h-4.7V62.3z"/>
			</g>
			<g>
				<rect x="39.5" y="59.7" class="st4" width="2.8" height="3.6"/>
				<path class="st1" d="M42.3,64.3h-2.8c-0.6,0-1-0.4-1-1v-3.6c0-0.6,0.4-1,1-1h2.8c0.6,0,1,0.4,1,1v3.6
					C43.3,63.9,42.9,64.3,42.3,64.3z M40.5,62.3h0.8v-1.6h-0.8V62.3z"/>
			</g>
		</g>
	</g>
	<g>
		<rect x="65.5" y="37.1" class="st4" width="28.2" height="4.9"/>
		<path class="st1" d="M93.7,43H65.5c-0.6,0-1-0.4-1-1v-4.9c0-0.6,0.4-1,1-1h28.2c0.6,0,1,0.4,1,1V42C94.7,42.6,94.3,43,93.7,43z
			 M66.5,41h26.2v-2.9H66.5V41z"/>
	</g>
	<g>
		<rect x="70" y="149.5" class="st0" width="28.2" height="4.9"/>
		<path class="st1" d="M98.2,155.4H70c-0.6,0-1-0.4-1-1v-4.9c0-0.6,0.4-1,1-1h28.2c0.6,0,1,0.4,1,1v4.9
			C99.2,155,98.7,155.4,98.2,155.4z M71,153.4h26.2v-2.9H71V153.4z"/>
	</g>
</g>
</svg>
