<?xml version="1.0" encoding="utf-8"?>
<!-- Generator: Adobe Illustrator 21.1.0, SVG Export Plug-In . SVG Version: 6.00 Build 0)  -->
<svg version="1.1" id="Layer_1" xmlns="http://www.w3.org/2000/svg" xmlns:xlink="http://www.w3.org/1999/xlink" x="0px" y="0px"
	 viewBox="0 0 271.1 216.2" style="enable-background:new 0 0 271.1 216.2;" xml:space="preserve">
<style type="text/css">
	.st0{fill:#F6BE12;}
	.st1{fill:#FFFFFF;}
	.st2{fill:#2B5971;}
	.st3{fill:#CEE6E8;}
	.st4{fill:#F2F7F7;}
	.st5{fill:#34AC91;}
</style>
<g>
	<path class="st0" d="M213.2,66.1c0,0.2,0,0.4,0,0.5c-1.3,0.7-2.8,1-4.2,1c-1.4,0-2.9-0.3-4.2-1c0,7.4,0,97.7,0,102.7
		c1.3,0.7,2.8,1,4.2,1c1.4,0,2.9-0.3,4.2-1C213.2,164,213.2,66.1,213.2,66.1L213.2,66.1z"/>
	<g>
		<path class="st1" d="M190.2,200.9c0,0.5-0.4,1-1,1H58.9c-0.6,0-1-0.4-1-1V15.3c0-0.5,0.4-1,1-1h130.3c0.5,0,1,0.4,1,1V200.9z"/>
		<path class="st2" d="M189.2,202.9H58.9c-1.1,0-2-0.9-2-2V15.3c0-1.1,0.9-2,2-2h130.3c1.1,0,2,0.9,2,2v185.6
			C191.2,202,190.3,202.9,189.2,202.9z M189.2,200.9v1V200.9L189.2,200.9L189.2,200.9z M189.2,15.3l-130.3,0l0,185.6l130.3,0V15.3z"
			/>
	</g>
	<g>
		<path class="st3" d="M190.2,24.9v-9.6c0-0.5-0.4-1-1-1H58.9c-0.6,0-1,0.4-1,1v9.6H190.2z"/>
		<path class="st2" d="M190.2,25.9H57.9c-0.6,0-1-0.4-1-1v-9.6c0-1.1,0.9-2,2-2h130.3c1.1,0,2,0.9,2,2v9.6
			C191.2,25.4,190.8,25.9,190.2,25.9z M58.9,23.9h130.3v-8.6l-130.3,0L58.9,23.9z"/>
	</g>
	<g>
		<path class="st4" d="M57.9,178.8v22.1c0,0.5,0.4,1,1,1h130.3c0.5,0,1-0.4,1-1v-22.1H57.9z"/>
		<path class="st2" d="M189.2,202.9H58.9c-1.1,0-2-0.9-2-2v-22.1c0-0.6,0.4-1,1-1h132.3c0.6,0,1,0.4,1,1v22.1
			C191.2,202,190.3,202.9,189.2,202.9z M189.2,200.9v1V200.9L189.2,200.9L189.2,200.9z M58.9,179.8v21.1l130.3,0l0-21.1H58.9z"/>
	</g>
	<g>
		<rect x="57.9" y="59.4" class="st5" width="132.3" height="50"/>
		<path class="st2" d="M190.2,110.4H57.9c-0.6,0-1-0.4-1-1v-50c0-0.6,0.4-1,1-1h132.3c0.6,0,1,0.4,1,1v50
			C191.2,110,190.8,110.4,190.2,110.4z M58.9,108.4h130.3v-48H58.9V108.4z"/>
	</g>
	<g>
		<rect x="88.1" y="74.9" class="st1" width="71.9" height="4.7"/>
		<path class="st2" d="M160,80.6H88.1c-0.6,0-1-0.4-1-1v-4.7c0-0.6,0.4-1,1-1H160c0.6,0,1,0.4,1,1v4.7C161,80.2,160.6,80.6,160,80.6
			z M89.1,78.6H159v-2.7H89.1V78.6z"/>
	</g>
	<g>
		<circle class="st1" cx="73.8" cy="19.5" r="1.7"/>
		<path class="st2" d="M73.8,22.2c-1.5,0-2.7-1.2-2.7-2.7c0-1.5,1.2-2.7,2.7-2.7c1.5,0,2.7,1.2,2.7,2.7C76.5,21,75.3,22.2,73.8,22.2
			z M73.8,18.8c-0.4,0-0.7,0.3-0.7,0.7c0,0.4,0.3,0.7,0.7,0.7c0.4,0,0.7-0.3,0.7-0.7C74.5,19.1,74.2,18.8,73.8,18.8z"/>
	</g>
	<g>
		<circle class="st1" cx="68.3" cy="19.5" r="1.7"/>
		<path class="st2" d="M68.3,22.2c-1.5,0-2.7-1.2-2.7-2.7c0-1.5,1.2-2.7,2.7-2.7S71,18,71,19.5C71,21,69.8,22.2,68.3,22.2z
			 M68.3,18.8c-0.4,0-0.7,0.3-0.7,0.7c0,0.4,0.3,0.7,0.7,0.7s0.7-0.3,0.7-0.7C69,19.1,68.7,18.8,68.3,18.8z"/>
	</g>
	<g>
		<circle class="st1" cx="62.8" cy="19.5" r="1.7"/>
		<path class="st2" d="M62.8,22.2c-1.5,0-2.7-1.2-2.7-2.7c0-1.5,1.2-2.7,2.7-2.7c1.5,0,2.7,1.2,2.7,2.7C65.5,21,64.2,22.2,62.8,22.2
			z M62.8,18.8c-0.4,0-0.7,0.3-0.7,0.7c0,0.4,0.3,0.7,0.7,0.7c0.4,0,0.7-0.3,0.7-0.7C63.5,19.1,63.1,18.8,62.8,18.8z"/>
	</g>
	<g>
		<g>
			<rect x="69.2" y="49.9" class="st2" width="20.1" height="2"/>
		</g>
		<g>
			<rect x="91.6" y="49.9" class="st2" width="20.1" height="2"/>
		</g>
		<g>
			<rect x="114" y="49.9" class="st2" width="20.1" height="2"/>
		</g>
		<g>
			<rect x="136.4" y="49.9" class="st2" width="20.1" height="2"/>
		</g>
		<g>
			<rect x="158.8" y="49.9" class="st2" width="20.1" height="2"/>
		</g>
	</g>
	<g>
		<g>
			<circle class="st1" cx="176.8" cy="189.6" r="2.7"/>
			<path class="st2" d="M176.8,193.3c-2.1,0-3.7-1.7-3.7-3.7c0-2.1,1.7-3.7,3.7-3.7c2.1,0,3.7,1.7,3.7,3.7
				C180.6,191.7,178.9,193.3,176.8,193.3z M176.8,187.9c-1,0-1.7,0.8-1.7,1.7c0,1,0.8,1.7,1.7,1.7c1,0,1.7-0.8,1.7-1.7
				C178.6,188.6,177.8,187.9,176.8,187.9z"/>
		</g>
		<g>
			<circle class="st1" cx="168.2" cy="189.6" r="2.7"/>
			<path class="st2" d="M168.2,193.3c-2.1,0-3.7-1.7-3.7-3.7c0-2.1,1.7-3.7,3.7-3.7c2.1,0,3.7,1.7,3.7,3.7
				C172,191.7,170.3,193.3,168.2,193.3z M168.2,187.9c-1,0-1.7,0.8-1.7,1.7c0,1,0.8,1.7,1.7,1.7c1,0,1.7-0.8,1.7-1.7
				C170,188.6,169.2,187.9,168.2,187.9z"/>
		</g>
		<g>
			<circle class="st1" cx="159.7" cy="189.6" r="2.7"/>
			<path class="st2" d="M159.7,193.3c-2.1,0-3.7-1.7-3.7-3.7c0-2.1,1.7-3.7,3.7-3.7c2.1,0,3.7,1.7,3.7,3.7
				C163.4,191.7,161.7,193.3,159.7,193.3z M159.7,187.9c-1,0-1.7,0.8-1.7,1.7c0,1,0.8,1.7,1.7,1.7c1,0,1.7-0.8,1.7-1.7
				C161.4,188.6,160.6,187.9,159.7,187.9z"/>
		</g>
		<g>
			<rect x="68.6" y="186.9" class="st2" width="23.7" height="2"/>
		</g>
		<g>
			<rect x="68.6" y="191.2" class="st2" width="48.9" height="2"/>
		</g>
	</g>
	<g>
		<g>
			<g>
				<rect x="69.5" y="119.7" class="st3" width="31.1" height="31.1"/>
				<path class="st2" d="M99.6,120.7v29.1H70.5v-29.1H99.6L99.6,120.7z M101.6,118.7H68.5v33.1h33.1V118.7L101.6,118.7z"/>
			</g>
			<g>
				<g>
					<path class="st1" d="M100.6,119.8l-31,31L100.6,119.8z"/>
					
						<rect x="63.2" y="134.3" transform="matrix(0.7071 -0.7071 0.7071 0.7071 -70.7594 99.7878)" class="st2" width="43.8" height="2"/>
				</g>
				<g>
					<path class="st1" d="M100.6,150.8l-31-31L100.6,150.8z"/>
					
						<rect x="84.1" y="113.4" transform="matrix(0.7071 -0.7071 0.7071 0.7071 -70.7604 99.7925)" class="st2" width="2" height="43.8"/>
				</g>
			</g>
		</g>
		<g>
			<rect x="68.7" y="155.9" class="st2" width="23.7" height="2"/>
		</g>
		<g>
			<rect x="68.7" y="160.2" class="st2" width="32.9" height="2"/>
		</g>
		<g>
			<rect x="68.7" y="164.6" class="st2" width="29.7" height="2"/>
		</g>
		<g>
			<rect x="68.7" y="168.9" class="st2" width="23.7" height="2"/>
		</g>
		<g>
			<g>
				<rect x="108.5" y="119.7" class="st3" width="31.1" height="31.1"/>
				<path class="st2" d="M138.6,120.7v29.1h-29.1v-29.1H138.6L138.6,120.7z M140.6,118.7h-33.1v33.1h33.1V118.7L140.6,118.7z"/>
			</g>
			<g>
				<g>
					<path class="st1" d="M139.6,119.8l-31,31L139.6,119.8z"/>
					
						<rect x="102.2" y="134.3" transform="matrix(0.7071 -0.7071 0.7071 0.7071 -59.3365 127.3649)" class="st2" width="43.8" height="2"/>
				</g>
				<g>
					<path class="st1" d="M139.6,150.8l-31-31L139.6,150.8z"/>
					
						<rect x="123.1" y="113.4" transform="matrix(0.7071 -0.7071 0.7071 0.7071 -59.3368 127.3705)" class="st2" width="2" height="43.8"/>
				</g>
			</g>
		</g>
		<g>
			<rect x="107.7" y="155.9" class="st2" width="23.7" height="2"/>
		</g>
		<g>
			<rect x="107.7" y="160.2" class="st2" width="32.9" height="2"/>
		</g>
		<g>
			<rect x="107.7" y="164.6" class="st2" width="29.7" height="2"/>
		</g>
		<g>
			<rect x="107.7" y="168.9" class="st2" width="23.7" height="2"/>
		</g>
		<g>
			<g>
				<rect x="147.5" y="119.7" class="st3" width="31.1" height="31.1"/>
				<path class="st2" d="M177.6,120.7v29.1h-29.1v-29.1H177.6L177.6,120.7z M179.6,118.7h-33.1v33.1h33.1V118.7L179.6,118.7z"/>
			</g>
			<g>
				<g>
					<path class="st1" d="M178.6,119.8l-31,31L178.6,119.8z"/>
					
						<rect x="141.2" y="134.3" transform="matrix(0.7071 -0.7071 0.7071 0.7071 -47.9137 154.9421)" class="st2" width="43.8" height="2"/>
				</g>
				<g>
					<path class="st1" d="M178.6,150.8l-31-31L178.6,150.8z"/>
					
						<rect x="162.1" y="113.4" transform="matrix(0.7071 -0.7071 0.7071 0.7071 -47.9131 154.9485)" class="st2" width="2" height="43.8"/>
				</g>
			</g>
		</g>
		<g>
			<rect x="146.7" y="155.9" class="st2" width="23.7" height="2"/>
		</g>
		<g>
			<rect x="146.7" y="160.2" class="st2" width="32.9" height="2"/>
		</g>
		<g>
			<rect x="146.7" y="164.6" class="st2" width="29.7" height="2"/>
		</g>
		<g>
			<rect x="146.7" y="168.9" class="st2" width="23.7" height="2"/>
		</g>
	</g>
	<g>
		<rect x="82.4" y="85.6" class="st2" width="83.3" height="2"/>
	</g>
	<g>
		<rect x="95.7" y="92.6" class="st2" width="56.7" height="2"/>
	</g>
	<g>
		<circle class="st0" cx="124.1" cy="38.6" r="6.7"/>
		<path class="st2" d="M124.1,46.2c-4.2,0-7.7-3.4-7.7-7.7c0-4.2,3.4-7.7,7.7-7.7c4.2,0,7.7,3.4,7.7,7.7
			C131.7,42.8,128.3,46.2,124.1,46.2z M124.1,32.9c-3.1,0-5.7,2.5-5.7,5.7c0,3.1,2.5,5.7,5.7,5.7c3.1,0,5.7-2.5,5.7-5.7
			C129.7,35.5,127.2,32.9,124.1,32.9z"/>
	</g>
	<g>
		<g>
			<g>
				<path class="st2" d="M65.9,90l-2.6-3.5c-0.3-0.4-0.3-0.8,0-1.2l2.6-3.5l1.6,1.2l-2.1,2.9l2.1,2.9L65.9,90z"/>
			</g>
			<g>
				<rect x="64.2" y="84.9" class="st2" width="7.8" height="2"/>
			</g>
		</g>
		<g>
			<g>
				<path class="st2" d="M182.2,90l-1.6-1.2l2.1-2.9l-2.1-2.9l1.6-1.2l2.6,3.5c0.3,0.4,0.3,0.8,0,1.2L182.2,90z"/>
			</g>
			<g>
				<rect x="176.2" y="84.9" class="st2" width="7.8" height="2"/>
			</g>
		</g>
	</g>
	<g>
		<path class="st2" d="M209,171.3c-1.6,0-3.2-0.4-4.7-1.1c-0.3-0.2-0.5-0.5-0.5-0.9V66.1c0-0.1,0-0.3,0.1-0.4l4.2-9.9
			c0.2-0.4,0.5-0.6,0.9-0.6c0.4,0,0.8,0.2,0.9,0.6l4.2,9.9c0.1,0.1,0.1,0.3,0.1,0.4c0,0,0,98,0,103.3c0,0.4-0.2,0.7-0.5,0.9
			C212.2,171,210.6,171.3,209,171.3z M205.8,168.7c2,0.9,4.4,0.9,6.4,0c0-9.7,0-97.6,0-102.4l-3.2-7.6l-3.2,7.6V168.7z"/>
	</g>
	<g>
		<rect x="205.2" y="166.1" class="st2" width="7.6" height="2"/>
	</g>
	<g>
		<path class="st2" d="M209,68.5c-1.5,0-2.9-0.3-4.2-1l0.9-1.8c2.1,1.1,4.6,1.1,6.7,0l0.9,1.8C211.9,68.1,210.4,68.5,209,68.5z"/>
	</g>
	<g>
		<path class="st2" d="M209,63.3c-1,0-2-0.2-2.9-0.7l0.9-1.8c1.3,0.6,2.7,0.6,4,0l0.9,1.8C211,63.1,210,63.3,209,63.3z"/>
	</g>
</g>
</svg>
