<?xml version="1.0" encoding="utf-8"?>
<!-- Generator: Adobe Illustrator 21.1.0, SVG Export Plug-In . SVG Version: 6.00 Build 0)  -->
<svg version="1.1" id="Layer_1" xmlns="http://www.w3.org/2000/svg" xmlns:xlink="http://www.w3.org/1999/xlink" x="0px" y="0px"
	 viewBox="0 0 271.1 246.2" style="enable-background:new 0 0 271.1 246.2;" xml:space="preserve">
<style type="text/css">
	.st0{fill:#2B5971;}
	.st1{fill:#34AC91;}
	.st2{fill:#FFFFFF;}
	.st3{fill:#F6BE12;}
	.st4{fill:#CEE6E8;}
</style>
<g>
	<g>
		<g>
			<g>
				<path class="st0" d="M87.2,123.2c-0.6,0-1-0.4-1-1v-5c0-0.6,0.4-1,1-1c0.6,0,1,0.4,1,1v5C88.2,122.7,87.8,123.2,87.2,123.2z"/>
			</g>
			<g>
				<path class="st0" d="M89.7,120.7h-5c-0.6,0-1-0.4-1-1c0-0.6,0.4-1,1-1h5c0.6,0,1,0.4,1,1C90.7,120.2,90.3,120.7,89.7,120.7z"/>
			</g>
		</g>
	</g>
	<g>
		<g>
			<g>
				<path class="st0" d="M155,65.4c-0.6,0-1-0.4-1-1v-5c0-0.6,0.4-1,1-1c0.6,0,1,0.4,1,1v5C156,65,155.6,65.4,155,65.4z"/>
			</g>
			<g>
				<path class="st0" d="M157.5,62.9h-5c-0.6,0-1-0.4-1-1c0-0.6,0.4-1,1-1h5c0.6,0,1,0.4,1,1C158.5,62.5,158.1,62.9,157.5,62.9z"/>
			</g>
		</g>
	</g>
	<g>
		<g>
			<g>
				<path class="st0" d="M171.4,104.3c-0.6,0-1-0.4-1-1v-5c0-0.6,0.4-1,1-1c0.6,0,1,0.4,1,1v5C172.4,103.9,171.9,104.3,171.4,104.3z
					"/>
			</g>
			<g>
				<path class="st0" d="M173.9,101.8h-5c-0.6,0-1-0.4-1-1c0-0.6,0.4-1,1-1h5c0.6,0,1,0.4,1,1C174.9,101.4,174.4,101.8,173.9,101.8z
					"/>
			</g>
		</g>
	</g>
	<g>
		<g>
			<g>
				<path class="st0" d="M61.5,83c-0.6,0-1-0.4-1-1v-5c0-0.6,0.4-1,1-1s1,0.4,1,1v5C62.5,82.6,62,83,61.5,83z"/>
			</g>
			<g>
				<path class="st0" d="M64,80.5h-5c-0.6,0-1-0.4-1-1c0-0.6,0.4-1,1-1h5c0.6,0,1,0.4,1,1C65,80.1,64.5,80.5,64,80.5z"/>
			</g>
		</g>
	</g>
	<g>
		<g>
			<g>
				<path class="st0" d="M235.4,137.6c-0.6,0-1-0.4-1-1v-5c0-0.6,0.4-1,1-1c0.6,0,1,0.4,1,1v5C236.4,137.2,235.9,137.6,235.4,137.6z
					"/>
			</g>
			<g>
				<path class="st0" d="M237.9,135.1h-5c-0.6,0-1-0.4-1-1c0-0.6,0.4-1,1-1h5c0.6,0,1,0.4,1,1C238.9,134.7,238.5,135.1,237.9,135.1z
					"/>
			</g>
		</g>
	</g>
	<g>
		<g>
			<g>
				<path class="st0" d="M47.7,157.1c-0.6,0-1-0.4-1-1v-5c0-0.6,0.4-1,1-1c0.6,0,1,0.4,1,1v5C48.7,156.6,48.2,157.1,47.7,157.1z"/>
			</g>
			<g>
				<path class="st0" d="M50.2,154.6h-5c-0.6,0-1-0.4-1-1c0-0.6,0.4-1,1-1h5c0.6,0,1,0.4,1,1C51.2,154.1,50.7,154.6,50.2,154.6z"/>
			</g>
		</g>
	</g>
	<g>
		<g>
			<g>
				<path class="st1" d="M120.7,83.6c10.7,0,19.8,6.7,23.5,16c1.1-2.8,1.7-5.9,1.7-9.2c0-13.9-11.3-25.2-25.2-25.2
					c-13.9,0-25.2,11.3-25.2,25.2c0,3.2,0.6,6.3,1.7,9.2C100.9,90.3,110.1,83.6,120.7,83.6z"/>
				<path class="st0" d="M144.2,100.6L144.2,100.6c-0.4,0-0.8-0.3-0.9-0.6c-3.7-9.4-12.5-15.4-22.5-15.4c-10,0-18.9,6-22.5,15.4
					c-0.2,0.4-0.5,0.6-0.9,0.6s-0.8-0.3-0.9-0.6c-1.2-3-1.8-6.3-1.8-9.5c0-7,2.7-13.6,7.7-18.5c4.9-5,11.5-7.7,18.5-7.7
					c14.5,0,26.2,11.8,26.2,26.2c0,3.3-0.6,6.5-1.8,9.5C145,100.4,144.6,100.6,144.2,100.6z M120.7,82.6c10,0,18.9,5.5,23.3,14.3
					c0.6-2.1,0.9-4.2,0.9-6.4c0-13.3-10.9-24.2-24.2-24.2c-6.5,0-12.5,2.5-17.1,7.1c-4.6,4.6-7.1,10.7-7.1,17.1
					c0,2.2,0.3,4.3,0.9,6.4C101.8,88.1,110.7,82.6,120.7,82.6z"/>
			</g>
			<g>
				<path class="st1" d="M127.2,66.1v18.3c7.8,2.1,14.1,7.8,17,15.2c1.1-2.8,1.7-5.9,1.7-9.2C145.9,78.8,138,68.9,127.2,66.1z"/>
				<path class="st0" d="M144.2,100.6L144.2,100.6c-0.4,0-0.8-0.3-0.9-0.6c-2.8-7.2-8.9-12.6-16.4-14.6c-0.4-0.1-0.7-0.5-0.7-1V66.1
					c0-0.3,0.1-0.6,0.4-0.8c0.2-0.2,0.6-0.3,0.9-0.2c11.5,3,19.5,13.4,19.5,25.3c0,3.3-0.6,6.5-1.8,9.5
					C145,100.4,144.6,100.6,144.2,100.6z M128.2,83.7c6.9,2,12.7,6.9,15.9,13.2c0.6-2.1,0.9-4.2,0.9-6.4c0-10.5-6.8-19.8-16.8-23
					V83.7z"/>
			</g>
			<g>
				<path class="st2" d="M120.7,86.9c3.1,0,6.1,0.5,8.9,1.4c4.2-8.4,6.7-19.3,6.7-31.2c0-18.9-6.3-35.2-15.6-43.2
					c-9.2,8-15.6,24.4-15.6,43.2c0,11.9,2.5,22.8,6.7,31.2C114.7,87.4,117.6,86.9,120.7,86.9z"/>
				<path class="st0" d="M129.6,89.2c-0.1,0-0.2,0-0.3,0c-5.6-1.8-11.6-1.8-17.2,0c-0.5,0.2-1-0.1-1.2-0.5
					c-4.4-8.9-6.8-20.1-6.8-31.6c0-18.6,6.1-35.5,15.9-44c0.4-0.3,0.9-0.3,1.3,0c9.8,8.5,15.9,25.4,15.9,44
					c0,11.5-2.4,22.8-6.8,31.6C130.4,89,130,89.2,129.6,89.2z M120.7,85.9c2.8,0,5.6,0.4,8.4,1.2c4-8.5,6.2-19.1,6.2-30
					c0-17.6-5.6-33.6-14.6-41.9c-9,8.3-14.6,24.3-14.6,41.9c0,10.9,2.2,21.5,6.2,30C115.1,86.3,117.9,85.9,120.7,85.9z"/>
			</g>
			<g>
				<path class="st3" d="M120.7,31.7c3.9,0,7.8,0.1,11.5,0.4c-2.7-7.8-6.7-14.1-11.5-18.3C116,18,112,24.3,109.2,32.1
					C113,31.8,116.8,31.7,120.7,31.7z"/>
				<path class="st0" d="M109.2,33.1c-0.3,0-0.6-0.1-0.8-0.4c-0.2-0.3-0.3-0.6-0.1-0.9c2.8-8,6.9-14.4,11.8-18.7
					c0.4-0.3,0.9-0.3,1.3,0c4.9,4.2,9,10.7,11.8,18.7c0.1,0.3,0.1,0.7-0.1,0.9c-0.2,0.3-0.5,0.4-0.9,0.4
					C124.5,32.6,117,32.6,109.2,33.1C109.3,33.1,109.3,33.1,109.2,33.1z M120.7,15.2c-4,3.7-7.5,9.2-10,15.8
					c6.7-0.4,13.3-0.4,20.1,0C128.2,24.4,124.8,18.9,120.7,15.2z"/>
			</g>
			<g>
				<path class="st1" d="M120.7,63.7c-2,3.3-3.3,10.1-3.3,18c0,7.8,1.4,14.6,3.3,18c2-3.3,3.3-10.1,3.3-18
					C124.1,73.9,122.7,67.1,120.7,63.7z"/>
				<path class="st0" d="M120.7,100.7c-0.4,0-0.7-0.2-0.9-0.5c-2.1-3.6-3.5-10.7-3.5-18.5c0-7.8,1.3-14.9,3.5-18.5
					c0.4-0.6,1.4-0.6,1.7,0c2.1,3.6,3.5,10.7,3.5,18.5c0,7.8-1.3,14.9-3.5,18.5C121.4,100.5,121.1,100.7,120.7,100.7z M120.7,66
					c-1.4,3.6-2.3,9.5-2.3,15.7c0,6.2,0.9,12,2.3,15.7c1.4-3.6,2.3-9.5,2.3-15.7C123.1,75.5,122.2,69.7,120.7,66z"/>
			</g>
			<g>
				<path class="st1" d="M120.7,63.9v35.6c0,0.1,0.1,0.1,0.1,0.2c2-3.3,3.3-10.1,3.3-18c0-7.9-1.4-14.6-3.3-18
					C120.7,63.8,120.7,63.8,120.7,63.9z"/>
				<path class="st0" d="M120.7,100.7C120.7,100.7,120.7,100.7,120.7,100.7c-0.4,0-0.7-0.2-0.9-0.5c0,0-0.1-0.1-0.1-0.1
					c-0.1-0.1-0.2-0.4-0.2-0.5V63.9c0-0.2,0-0.4,0.1-0.5c0,0,0.1-0.1,0.1-0.1c0.2-0.3,0.5-0.5,0.9-0.5c0.4,0,0.7,0.2,0.9,0.5
					c2.1,3.6,3.5,10.7,3.5,18.5c0,7.8-1.3,14.9-3.5,18.5C121.4,100.5,121.1,100.7,120.7,100.7z M121.7,68.9v25.7
					c0.9-3.5,1.4-8.1,1.4-12.8C123.1,77,122.6,72.4,121.7,68.9z"/>
			</g>
			<g>
				<path class="st1" d="M120.7,57.1c-4.8,0-8.8-3.9-8.8-8.8c0-4.8,3.9-8.8,8.8-8.8c4.8,0,8.7,3.9,8.7,8.8
					C129.5,53.1,125.6,57.1,120.7,57.1L120.7,57.1z"/>
				<path class="st0" d="M120.7,58.1L120.7,58.1c-5.4,0-9.8-4.4-9.8-9.8c0-5.4,4.4-9.8,9.8-9.8c5.4,0,9.7,4.4,9.7,9.8
					C130.5,53.7,126.1,58.1,120.7,58.1z M120.7,40.6c-4.3,0-7.8,3.5-7.8,7.8c0,4.3,3.5,7.8,7.8,7.8c4.3,0,7.7-3.5,7.7-7.8
					S125,40.6,120.7,40.6z"/>
			</g>
			<g>
				<path class="st4" d="M120.7,43c-2.9,0-5.3,2.4-5.3,5.3c0,2.9,2.4,5.3,5.3,5.3c2.9,0,5.3-2.4,5.3-5.3
					C126.1,45.4,123.7,43,120.7,43L120.7,43z"/>
				<path class="st0" d="M120.7,54.6c-3.5,0-6.3-2.8-6.3-6.3c0-3.5,2.8-6.3,6.3-6.3c3.5,0,6.3,2.8,6.3,6.3
					C127.1,51.8,124.2,54.6,120.7,54.6z M120.7,44c-2.4,0-4.3,1.9-4.3,4.3s1.9,4.3,4.3,4.3c2.4,0,4.3-1.9,4.3-4.3S123.1,44,120.7,44
					z"/>
			</g>
		</g>
	</g>
	<g>
		<path class="st0" d="M98.3,180.6c-7,0-12.7-5.7-12.7-12.7h2c0,5.9,4.8,10.7,10.7,10.7c5.9,0,10.7-4.8,10.7-10.7V97.1h2v70.8
			C111,174.9,105.3,180.6,98.3,180.6z"/>
	</g>
	<g>
		<path class="st0" d="M142.6,222c-12.1,0-21.9-9.8-21.9-21.9v-87.6h2v87.6c0,11,8.9,19.9,19.9,19.9V222z"/>
	</g>
	<g>
		<path class="st0" d="M170.6,198.8C170.6,198.8,170.6,198.8,170.6,198.8c-2.2,0-4.5-0.2-6.7-0.6l0.3-2c2.1,0.4,4.2,0.5,6.3,0.5
			c0,0,0,0,0,0c9.9,0,19.2-3.8,26.2-10.8c7-7,10.8-16.3,10.8-26.2h2c0,10.4-4.1,20.2-11.4,27.6C190.8,194.7,181,198.8,170.6,198.8z"
			/>
	</g>
	<g>
		<path class="st0" d="M142.7,187.1c-7.2-7.3-11.2-17-11.2-27.3V93h2v66.7c0,9.8,3.8,19,10.6,25.9L142.7,187.1z"/>
	</g>
	<g>
		<path class="st0" d="M170.8,190c-17.7,0-32.1-14.4-32.1-32.1s14.4-32.1,32.1-32.1c17.7,0,32.1,14.4,32.1,32.1h-2
			c0-16.6-13.5-30.1-30.1-30.1c-16.6,0-30.1,13.5-30.1,30.1s13.5,30.1,30.1,30.1V190z"/>
	</g>
	<g>
		<path class="st0" d="M170.8,180c-5.7,0-11.3-2.2-15.6-6.5l1.4-1.4c7.8,7.8,20.6,7.8,28.4,0c7.8-7.8,7.8-20.6,0-28.4
			c-7.8-7.8-20.6-7.8-28.4,0l-1.4-1.4c8.6-8.6,22.6-8.6,31.3,0c8.6,8.6,8.6,22.6,0,31.3C182.1,177.9,176.4,180,170.8,180z"/>
	</g>
	<g>
		<path class="st0" d="M74.8,227c-1.3,0-2.7-0.1-4-0.2c-17.5-2.2-30-18.3-27.8-35.8c1.1-8.5,5.4-16.1,12.1-21.3
			c6.8-5.3,15.2-7.6,23.7-6.5l-0.2,2c-8-1-15.8,1.2-22.2,6.1c-6.3,4.9-10.4,12-11.4,20c-2.1,16.4,9.6,31.5,26.1,33.6
			c16.5,2.1,31.5-9.6,33.6-26.1l2,0.2C104.6,215.1,90.8,227,74.8,227z"/>
	</g>
	<g>
		<path class="st0" d="M74.8,218.2c-1,0-1.9-0.1-2.9-0.2c-12.7-1.6-21.7-13.2-20.1-25.9c0.8-6.1,3.9-11.6,8.8-15.4
			c4.9-3.8,11-5.5,17.1-4.7l-0.2,2c-5.6-0.7-11.2,0.8-15.6,4.3c-4.5,3.5-7.3,8.5-8,14.1c-1.5,11.6,6.8,22.2,18.4,23.6
			c11.6,1.4,22.2-6.8,23.6-18.4l2,0.2C96.4,209.6,86.3,218.2,74.8,218.2z"/>
	</g>
	<g>
		<path class="st0" d="M97.3,186.4c-2.6,0-5.1-0.6-7.4-1.8c-3.9-2-6.8-5.4-8.1-9.5c-1.3-4.2-1-8.6,1-12.5c2-3.9,5.4-6.8,9.5-8.1
			c4.2-1.3,8.6-1,12.5,1l-0.9,1.8c-3.4-1.7-7.3-2.1-10.9-0.9c-3.6,1.2-6.6,3.7-8.4,7.1c-1.7,3.4-2.1,7.3-0.9,10.9
			c1.2,3.6,3.7,6.6,7.1,8.3c3.4,1.7,7.3,2.1,10.9,0.9c3.6-1.2,6.6-3.7,8.3-7.1l1.8,0.9c-2,3.9-5.4,6.8-9.5,8.1
			C100.7,186.2,99,186.4,97.3,186.4z"/>
	</g>
	<g>
		<path class="st0" d="M204.7,218.7c-9,0-16.3-7.3-16.3-16.3h2c0,7.9,6.4,14.3,14.3,14.3c7.9,0,14.3-6.4,14.3-14.3h2
			C221.1,211.4,213.7,218.7,204.7,218.7z"/>
	</g>
	<g>
		<path class="st0" d="M206.1,226.4c-2.2,0-4.4-0.3-6.5-1c-5.4-1.7-9.7-5.5-12.3-10.5l1.8-0.9c2.3,4.5,6.3,7.9,11.1,9.5
			c4.9,1.6,10,1.2,14.6-1.2c4.5-2.3,7.9-6.3,9.5-11.1c1.6-4.9,1.2-10-1.2-14.6c-4.8-9.4-16.4-13.1-25.7-8.3l-0.9-1.8
			c10.4-5.3,23.1-1.2,28.4,9.2c2.6,5,3,10.8,1.3,16.1c-1.7,5.4-5.5,9.7-10.5,12.3C212.6,225.6,209.4,226.4,206.1,226.4z"/>
	</g>
	<g>
		<path class="st0" d="M144.9,232.3c-4.8,0-9.7-1.5-13.9-4.6l1.2-1.6c9.5,7,23,5,30-4.6c7-9.5,5-23-4.6-30c-9.5-7-23-5-30,4.6
			l-1.6-1.2c7.7-10.4,22.4-12.7,32.8-5c10.4,7.7,12.7,22.4,5,32.8C159.2,229,152.1,232.3,144.9,232.3z"/>
	</g>
</g>
</svg>
